<?xml version="1.0" encoding="utf-8"?>
<!-- Generator: Adobe Illustrator 26.0.3, SVG Export Plug-In . SVG Version: 6.00 Build 0)  -->
<svg version="1.1" id="圖層_1__x2B__色彩填色_1_xA0_影像_00000027574397278696563210000000456794046662116024_"
	 xmlns="http://www.w3.org/2000/svg" xmlns:xlink="http://www.w3.org/1999/xlink" x="0px" y="0px" viewBox="0 0 24 24"
	 style="enable-background:new 0 0 24 24;" xml:space="preserve">
<g>
	<path style="fill:#4AD34E;" d="M4.6253,23.8538c0.3693-0.5796,0.7443-1.1556,1.1066-1.7396
		c0.5373-0.8662,1.0655-1.7379,1.6229-2.6488c0.2195,0.2287,0.4291,0.4384,0.6283,0.6574c0.1544,0.1697,0.3004,0.2167,0.5418,0.1363
		c0.4913-0.1638,1.0057-0.257,1.5034-0.4038c0.4984-0.147,0.9973-0.3006,1.4795-0.4926c0.8257-0.3288,1.6535-0.6587,2.4536-1.044
		c1.6528-0.7959,3.1733-1.7865,4.3655-3.2115c0.5834-0.6974,1.0227-1.4743,1.2789-2.3568c0.2463-0.8487,0.3684-1.714,0.3892-2.5909
		c0.0323-1.3611-0.2546-2.6361-1.13-3.7266c-0.0786-0.0979-0.1673-0.1875-0.2261-0.3165c0.2039,0.1343,0.4132,0.2611,0.6107,0.4042
		c1.007,0.7295,1.8252,1.6206,2.2727,2.7982c0.3262,0.8585,0.4812,1.7507,0.3252,2.6716c-0.084,0.4961-0.1546,0.9986-0.2937,1.4802
		c-0.2172,0.7521-0.5452,1.4626-0.9564,2.1319c-1.2091,1.968-2.934,3.3875-4.88,4.5649c-1.0945,0.6623-2.2365,1.234-3.4352,1.6876
		c-0.4787,0.1811-0.9555,0.3671-1.4332,0.5507c-0.0074,0.0028-0.0151,0.0047-0.0228,0.0069
		c-0.4531,0.1274-0.4586,0.1598-0.1165,0.5041c0.3072,0.3091,0.6081,0.6245,0.9118,0.9372
		C9.2895,23.8538,6.9574,23.8538,4.6253,23.8538z"/>
	<path style="fill:#4AD34E;" d="M5.3592,17.7592c-1.0005-0.5483-1.8254-1.2817-2.4297-2.2482
		c-0.3333-0.533-0.5967-1.1084-0.6945-1.7213c-0.0959-0.6009-0.2152-1.2034-0.0894-1.8377c0.1228-0.6187,0.2231-1.24,0.4308-1.8364
		c0.2525-0.725,0.5949-1.4073,1.0187-2.0487c1.2666-1.917,3.0154-3.2921,4.9695-4.4408c1.1458-0.6735,2.3506-1.2218,3.5823-1.7128
		c0.3866-0.1541,0.7902-0.2651,1.1809-0.4096c0.0937-0.0347,0.1925-0.1103,0.2388-0.1947c0.0216-0.0394-0.0644-0.1553-0.122-0.2179
		c-0.289-0.3139-0.5847-0.6216-0.8909-0.945c2.2722,0.0317,4.5204,0.0631,6.7895,0.0948c-0.8574,1.4538-1.7024,2.8865-2.5476,4.3198
		c-0.2545-0.2468-0.5106-0.4712-0.737-0.7223c-0.1722-0.1909-0.3222-0.2325-0.5786-0.1416
		c-0.4507,0.1597-0.9272,0.2446-1.387,0.3808c-0.5426,0.1607-1.0942,0.3061-1.6149,0.5228
		c-1.0538,0.4387-2.1111,0.8783-3.1273,1.3956C7.9435,6.7126,6.6851,7.6468,5.6613,8.8662c-0.6449,0.7681-1.1052,1.641-1.34,2.6155
		c-0.2757,1.1444-0.3918,2.3119-0.2417,3.483c0.1276,0.9956,0.4984,1.906,1.1708,2.6735
		C5.2862,17.679,5.3229,17.7189,5.3592,17.7592z"/>
	<path style="fill:#4AD34E;" d="M9.3773,13.6453c0.0001,1.0461,0.0012,2.0922-0.0003,3.1383
		c-0.0011,0.698-0.6972,1.1829-1.3735,0.9742c-0.3371-0.104-0.6494-0.2235-0.7655-0.5962
		c-0.0346-0.1111-0.0523-0.2321-0.0525-0.3487c-0.0029-2.1318-0.0028-4.2636-0.0013-6.3954
		c0.0003-0.4447,0.2434-0.7137,0.6654-0.8692c0.3415-0.1259,0.6494-0.077,0.9677,0.0354c0.3383,0.1194,0.5582,0.4393,0.5591,0.8283
		C9.379,11.4897,9.3773,12.5675,9.3773,13.6453z"/>
	<path style="fill:#4AD34E;" d="M15.1072,10.3713c-0.0001-0.9915-0.0011-1.983,0.0002-2.9745
		c0.0009-0.6533,0.6464-1.1507,1.2862-0.9908c0.3762,0.094,0.7406,0.2105,0.868,0.6401c0.0288,0.0971,0.048,0.2011,0.0482,0.3019
		c0.0028,2.0147,0.0005,4.0294,0.0037,6.0442c0.0007,0.4203-0.2676,0.7581-0.7006,0.8963
		c-0.3909,0.1247-0.7305,0.0568-1.0702-0.1121c-0.3087-0.1535-0.4336-0.4267-0.4344-0.7593
		C15.1057,12.4019,15.1073,11.3866,15.1072,10.3713z"/>
	<path style="fill:#4AD34E;" d="M11.1968,12.0313c0.0001-0.4989,0.0293-1.0001-0.0087-1.4961
		c-0.0335-0.4376,0.1909-0.6771,0.5348-0.8257c0.5162-0.2231,1.0146-0.1622,1.4627,0.1967
		c0.1578,0.1264,0.2318,0.2818,0.2303,0.4927c-0.0076,1.0453-0.0182,2.0911,0.0041,3.136c0.0083,0.3898-0.1446,0.6335-0.4755,0.7919
		c-0.5879,0.2815-1.0737,0.2133-1.5525-0.2005c-0.1085-0.0937-0.1809-0.2833-0.1867-0.4321
		C11.1837,13.1405,11.1967,12.5856,11.1968,12.0313z"/>
</g>
</svg>
